<svg xmlns="http://www.w3.org/2000/svg" xmlns:xlink="http://www.w3.org/1999/xlink" xmlns:lucid="lucid" width="1784" height="1464"><g transform="translate(602 -518)" lucid:page-tab-id="0_0"><path d="M-1000 500h2500v1500h-2500z" fill="#fff"/><path d="M0 526a6 6 0 0 1 6-6h508.4a6 6 0 0 1 6 6v508a6 6 0 0 1-6 6H6a6 6 0 0 1-6-6z" stroke="#000" stroke-width="4" fill="#fff"/><path d="M0 562.9h520.4" stroke="#000" stroke-width="4" fill="none"/><use xlink:href="#a" transform="matrix(1,0,0,1,8,528) translate(200.03146701388889 21.58376736111111)"/><path d="M-600 1126a6 6 0 0 1 6-6h568a6 6 0 0 1 6 6v848a6 6 0 0 1-6 6h-568a6 6 0 0 1-6-6z" stroke="#000" stroke-width="4" fill="#fff"/><path d="M-600 1162.9h580" stroke="#000" stroke-width="4" fill="none"/><use xlink:href="#b" transform="matrix(1,0,0,1,-592,1128) translate(211.83940972222223 21.58376736111111)"/><path d="M-560 1206a6 6 0 0 1 6-6h188a6 6 0 0 1 6 6v388a6 6 0 0 1-6 6h-188a6 6 0 0 1-6-6z" stroke="#000" stroke-width="2" fill="#fff"/><path d="M-560 1242.9h200" stroke="#000" stroke-width="2" fill="none"/><use xlink:href="#c" transform="matrix(1,0,0,1,-552,1208) translate(47.55013020833334 21.58376736111111)"/><path d="M20 1206a6 6 0 0 1 6-6h748a6 6 0 0 1 6 6v708a6 6 0 0 1-6 6H26a6 6 0 0 1-6-6z" stroke="#000" stroke-width="4" fill="#fff"/><path d="M20 1242.9h760" stroke="#000" stroke-width="4" fill="none"/><use xlink:href="#d" transform="matrix(1,0,0,1,28,1208) translate(338.2434895833333 21.58376736111111)"/><path d="M60 1286a6 6 0 0 1 6-6h308a6 6 0 0 1 6 6v588a6 6 0 0 1-6 6H66a6 6 0 0 1-6-6z" stroke="#000" stroke-width="2" fill="#fff"/><path d="M60 1322.9h320" stroke="#000" stroke-width="2" fill="none"/><use xlink:href="#e" transform="matrix(1,0,0,1,68.0000000000002,1288) translate(106.30859375 21.58376736111111)"/><use xlink:href="#f" transform="matrix(1,0,0,1,68.0000000000002,1288) translate(189.11024305555554 21.58376736111111)"/><path d="M40 606a6 6 0 0 1 6-6h188a6 6 0 0 1 6 6v388a6 6 0 0 1-6 6H46a6 6 0 0 1-6-6z" stroke="#000" stroke-width="2" fill="#fff0f0"/><path d="M40 642.9h200" stroke="#000" stroke-width="2" fill="none"/><use xlink:href="#g" transform="matrix(1,0,0,1,48,608) translate(20.80859375 21.58376736111111)"/><use xlink:href="#h" transform="matrix(1,0,0,1,48,608) translate(122.33854166666667 21.58376736111111)"/><path d="M280.4 606a6 6 0 0 1 6-6h188a6 6 0 0 1 6 6v388a6 6 0 0 1-6 6h-188a6 6 0 0 1-6-6z" stroke="#000" stroke-width="2" fill="#cfe4ff"/><path d="M280.4 642.9h200" stroke="#000" stroke-width="2" fill="none"/><use xlink:href="#i" transform="matrix(1,0,0,1,288.3892279664542,608) translate(15.199652777777771 21.58376736111111)"/><use xlink:href="#j" transform="matrix(1,0,0,1,288.3892279664542,608) translate(84.15581597222221 21.58376736111111)"/><use xlink:href="#k" transform="matrix(1,0,0,1,288.3892279664542,608) translate(137.37847222222223 21.58376736111111)"/><path d="M560.4 546a6 6 0 0 1 6-6h188a6 6 0 0 1 6 6v448a6 6 0 0 1-6 6h-188a6 6 0 0 1-6-6z" stroke="#000" stroke-width="4" fill="#6db1ff"/><path d="M560.4 647.42h200" stroke="#000" stroke-width="4" fill="none"/><use xlink:href="#l" transform="matrix(1,0,0,1,568.3892279664542,548) translate(9.644097222222229 21.818142361111114)"/><use xlink:href="#m" transform="matrix(1,0,0,1,568.3892279664542,548) translate(89.71137152777779 21.818142361111114)"/><use xlink:href="#n" transform="matrix(1,0,0,1,568.3892279664542,548) translate(142.93402777777777 21.818142361111114)"/><use xlink:href="#o" transform="matrix(1,0,0,1,568.3892279664542,548) translate(34.88281250000001 54.083767361111114)"/><use xlink:href="#p" transform="matrix(1,0,0,1,568.3892279664542,548) translate(56.302083333333336 86.34939236111111)"/><path d="M596.4 900H463.37" stroke="#3a414a" stroke-width="6" fill="none"/><path d="M599.4 902.98h-3.1V897h3.1z" stroke="#3a414a" stroke-width=".05" fill="#3a414a"/><path d="M447.4 900l12.98-7.5v15z" stroke="#3a414a" stroke-width="6" fill="#3a414a"/><path d="M444.4 740h133" stroke="#3a414a" stroke-width="6" fill="none"/><path d="M444.47 742.98h-3.08V737h3.07z" stroke="#3a414a" stroke-width=".05" fill="#3a414a"/><path d="M593.4 740l-13 7.5v-15z" stroke="#3a414a" stroke-width="6" fill="#3a414a"/><path d="M204 740h9.34m12.45 0h18.67m12.46 0h18.68m12.46 0h9.34" stroke="#3a414a" stroke-width="6" fill="none"/><path d="M204.08 742.98H201V737h3.08z" stroke="#3a414a" stroke-width=".05" fill="#3a414a"/><path d="M313.4 740l-13 7.5v-15z" stroke="#3a414a" stroke-width="6" fill="#3a414a"/><path d="M316.4 900h-9.35m-12.45 0h-18.68m-12.46 0h-18.68m-12.45 0H223" stroke="#3a414a" stroke-width="6" fill="none"/><path d="M319.4 902.98h-3.1V897h3.1z" stroke="#3a414a" stroke-width=".05" fill="#3a414a"/><path d="M207 900l13-7.5v15z" stroke="#3a414a" stroke-width="6" fill="#3a414a"/><path d="M-240 606a6 6 0 0 1 6-6h188a6 6 0 0 1 6 6v388a6 6 0 0 1-6 6h-188a6 6 0 0 1-6-6z" stroke="#000" stroke-width="4" fill="#fe7070"/><path d="M-240 642.9h200" stroke="#000" stroke-width="4" fill="none"/><use xlink:href="#q" transform="matrix(1,0,0,1,-232,608) translate(20.80859375 21.58376736111111)"/><use xlink:href="#r" transform="matrix(1,0,0,1,-232,608) translate(122.33854166666667 21.58376736111111)"/><path d="M-76 740H57" stroke="#3a414a" stroke-width="6" fill="none"/><path d="M-75.92 742.98H-79V737h3.08z" stroke="#3a414a" stroke-width=".05" fill="#3a414a"/><path d="M73 740l-13 7.5v-15z" stroke="#3a414a" stroke-width="6" fill="#3a414a"/><path d="M76 900H-57" stroke="#3a414a" stroke-width="6" fill="none"/><path d="M79 902.98h-3.08V897H79z" stroke="#3a414a" stroke-width=".05" fill="#3a414a"/><path d="M-73 900l13-7.5v15z" stroke="#3a414a" stroke-width="6" fill="#3a414a"/><path d="M100 1366a6 6 0 0 1 6-6h228a6 6 0 0 1 6 6v468a6 6 0 0 1-6 6H106a6 6 0 0 1-6-6z" stroke="#000" stroke-width="2" fill="#ffdda6"/><path d="M100 1402.9h240" stroke="#000" stroke-width="2" fill="none"/><use xlink:href="#s" transform="matrix(1,0,0,1,108.0000000000002,1368) translate(36.55598958333334 21.58376736111111)"/><use xlink:href="#t" transform="matrix(1,0,0,1,108.0000000000002,1368) translate(114.21440972222223 21.58376736111111)"/><path d="M420 1286a6 6 0 0 1 6-6h308a6 6 0 0 1 6 6v588a6 6 0 0 1-6 6H426a6 6 0 0 1-6-6z" stroke="#000" stroke-width="2" fill="#fff"/><path d="M420 1322.9h320" stroke="#000" stroke-width="2" fill="none"/><use xlink:href="#u" transform="matrix(1,0,0,1,428,1288) translate(104.10047743055557 21.58376736111111)"/><use xlink:href="#v" transform="matrix(1,0,0,1,428,1288) translate(186.90212673611111 21.58376736111111)"/><path d="M-560 1646a6 6 0 0 1 6-6h187.22a6 6 0 0 1 6 6v288a6 6 0 0 1-6 6H-554a6 6 0 0 1-6-6z" stroke="#000" stroke-width="2" fill="#fff"/><path d="M-560 1682.9h199.22" stroke="#000" stroke-width="2" fill="none"/><use xlink:href="#w" transform="matrix(1,0,0,1,-552,1648) translate(14.905815972222229 21.58376736111111)"/><use xlink:href="#x" transform="matrix(1,0,0,1,-548,1690.8880208333333) translate(46.89756944444445 32.28689236111112)"/><use xlink:href="#y" transform="matrix(1,0,0,1,-548,1690.8880208333333) translate(47.109157986111114 64.55251736111111)"/><use xlink:href="#z" transform="matrix(1,0,0,1,-548,1690.8880208333333) translate(47.48893229166667 96.81814236111111)"/><use xlink:href="#A" transform="matrix(1,0,0,1,-548,1690.8880208333333) translate(49.013454861111114 129.08376736111111)"/><use xlink:href="#B" transform="matrix(1,0,0,1,-548,1690.8880208333333) translate(48.73676215277778 161.34939236111111)"/><use xlink:href="#C" transform="matrix(1,0,0,1,-548,1690.8880208333333) translate(49.29014756944444 193.61501736111111)"/><use xlink:href="#D" transform="matrix(1,0,0,1,-548,1690.8880208333333) translate(22.971788194444443 225.88064236111111)"/><path d="M-200 686a6 6 0 0 1 6-6h108a6 6 0 0 1 6 6v108a6 6 0 0 1-6 6h-108a6 6 0 0 1-6-6z" stroke="#000" stroke-width="2" fill="#fff"/><use xlink:href="#E" transform="matrix(1,0,0,1,-195.00000000000003,685) translate(16.513454861111114 31.84027777777778)"/><use xlink:href="#F" transform="matrix(1,0,0,1,-195.00000000000003,685) translate(16.23676215277778 64.10590277777777)"/><use xlink:href="#G" transform="matrix(1,0,0,1,-195.00000000000003,685) translate(16.790147569444443 96.37152777777777)"/><path d="M600.4 846a6 6 0 0 1 6-6h108a6 6 0 0 1 6 6v108a6 6 0 0 1-6 6h-108a6 6 0 0 1-6-6z" stroke="#000" stroke-width="2" fill="#fff"/><use xlink:href="#H" transform="matrix(1,0,0,1,605.3892279664542,845) translate(13.89756944444445 31.84027777777778)"/><use xlink:href="#I" transform="matrix(1,0,0,1,605.3892279664542,845) translate(14.109157986111114 64.10590277777777)"/><use xlink:href="#J" transform="matrix(1,0,0,1,605.3892279664542,845) translate(14.488932291666671 96.37152777777777)"/><path d="M80 686a6 6 0 0 1 6-6h108a6 6 0 0 1 6 6v108a6 6 0 0 1-6 6H86a6 6 0 0 1-6-6z" stroke="#000" stroke-width="2" fill="#fff"/><use xlink:href="#K" transform="matrix(1,0,0,1,84.99999999999991,685) translate(16.513454861111114 31.84027777777778)"/><use xlink:href="#L" transform="matrix(1,0,0,1,84.99999999999991,685) translate(16.23676215277778 64.10590277777777)"/><use xlink:href="#M" transform="matrix(1,0,0,1,84.99999999999991,685) translate(16.790147569444443 96.37152777777777)"/><path d="M320.4 686a6 6 0 0 1 6-6h108a6 6 0 0 1 6 6v108a6 6 0 0 1-6 6h-108a6 6 0 0 1-6-6z" stroke="#000" stroke-width="2" fill="#fff"/><use xlink:href="#E" transform="matrix(1,0,0,1,325.3892279664542,685) translate(16.513454861111114 31.84027777777778)"/><use xlink:href="#F" transform="matrix(1,0,0,1,325.3892279664542,685) translate(16.23676215277778 64.10590277777777)"/><use xlink:href="#G" transform="matrix(1,0,0,1,325.3892279664542,685) translate(16.790147569444443 96.37152777777777)"/><path d="M600.4 686a6 6 0 0 1 6-6h108a6 6 0 0 1 6 6v108a6 6 0 0 1-6 6h-108a6 6 0 0 1-6-6z" stroke="#000" stroke-width="2" fill="#fff"/><use xlink:href="#E" transform="matrix(1,0,0,1,605.3892279664542,685) translate(16.513454861111114 31.84027777777778)"/><use xlink:href="#F" transform="matrix(1,0,0,1,605.3892279664542,685) translate(16.23676215277778 64.10590277777777)"/><use xlink:href="#G" transform="matrix(1,0,0,1,605.3892279664542,685) translate(16.790147569444443 96.37152777777777)"/><path d="M320.4 846a6 6 0 0 1 6-6h108a6 6 0 0 1 6 6v108a6 6 0 0 1-6 6h-108a6 6 0 0 1-6-6z" stroke="#000" stroke-width="2" fill="#fff"/><use xlink:href="#H" transform="matrix(1,0,0,1,325.3892279664543,845) translate(14.39756944444445 31.93402777777778)"/><use xlink:href="#I" transform="matrix(1,0,0,1,325.3892279664543,845) translate(14.609157986111114 64.19965277777777)"/><use xlink:href="#J" transform="matrix(1,0,0,1,325.3892279664543,845) translate(14.988932291666671 96.46527777777777)"/><path d="M80 846a6 6 0 0 1 6-6h108a6 6 0 0 1 6 6v108a6 6 0 0 1-6 6H86a6 6 0 0 1-6-6z" stroke="#000" stroke-width="2" fill="#fff"/><use xlink:href="#N" transform="matrix(1,0,0,1,84.99999999999991,845) translate(14.39756944444445 31.93402777777778)"/><use xlink:href="#O" transform="matrix(1,0,0,1,84.99999999999991,845) translate(14.609157986111114 64.19965277777777)"/><use xlink:href="#P" transform="matrix(1,0,0,1,84.99999999999991,845) translate(14.988932291666671 96.46527777777777)"/><path d="M-200 846a6 6 0 0 1 6-6h108a6 6 0 0 1 6 6v108a6 6 0 0 1-6 6h-108a6 6 0 0 1-6-6z" stroke="#000" stroke-width="2" fill="#fff"/><use xlink:href="#H" transform="matrix(1,0,0,1,-195.00000000000003,845) translate(14.39756944444445 31.84027777777778)"/><use xlink:href="#I" transform="matrix(1,0,0,1,-195.00000000000003,845) translate(14.609157986111114 64.10590277777777)"/><use xlink:href="#J" transform="matrix(1,0,0,1,-195.00000000000003,845) translate(14.988932291666671 96.37152777777777)"/><path d="M160 1686a6 6 0 0 1 6-6h108a6 6 0 0 1 6 6v108a6 6 0 0 1-6 6H166a6 6 0 0 1-6-6z" stroke="#000" stroke-width="2" fill="#fff"/><use xlink:href="#H" transform="matrix(1,0,0,1,165.00000000000023,1685) translate(13.89756944444445 31.84027777777778)"/><use xlink:href="#I" transform="matrix(1,0,0,1,165.00000000000023,1685) translate(14.109157986111114 64.10590277777777)"/><use xlink:href="#J" transform="matrix(1,0,0,1,165.00000000000023,1685) translate(14.488932291666671 96.37152777777777)"/><path d="M140 1446a6 6 0 0 1 6-6h148a6 6 0 0 1 6 6v108a6 6 0 0 1-6 6H146a6 6 0 0 1-6-6z" stroke="#000" stroke-width="2" fill="#fff"/><use xlink:href="#E" transform="matrix(1,0,0,1,145.0000000000002,1445) translate(36.513454861111114 31.84027777777778)"/><use xlink:href="#F" transform="matrix(1,0,0,1,145.0000000000002,1445) translate(36.23676215277778 64.10590277777777)"/><use xlink:href="#Q" transform="matrix(1,0,0,1,145.0000000000002,1445) translate(36.79014756944444 96.37152777777777)"/><path d="M-290 1366a6 6 0 0 1 6-6h218a6 6 0 0 1 6 6v468a6 6 0 0 1-6 6h-218a6 6 0 0 1-6-6z" stroke="#000" stroke-width="2" fill="#fff3d9"/><path d="M-290 1402.9h230" stroke="#000" stroke-width="2" fill="none"/><use xlink:href="#i" transform="matrix(1,0,0,1,-282,1368) translate(35.40711805555556 21.58376736111111)"/><use xlink:href="#t" transform="matrix(1,0,0,1,-282,1368) translate(104.36328125 21.58376736111111)"/><path d="M460 1366a6 6 0 0 1 6-6h228a6 6 0 0 1 6 6v468a6 6 0 0 1-6 6H466a6 6 0 0 1-6-6z" stroke="#000" stroke-width="2" fill="#cfe4ff"/><path d="M460 1402.9h240" stroke="#000" stroke-width="2" fill="none"/><use xlink:href="#i" transform="matrix(1,0,0,1,468,1368) translate(35.19965277777777 21.58376736111111)"/><use xlink:href="#j" transform="matrix(1,0,0,1,468,1368) translate(104.15581597222221 21.58376736111111)"/><use xlink:href="#k" transform="matrix(1,0,0,1,468,1368) translate(157.37847222222223 21.58376736111111)"/><path d="M520 1686a6 6 0 0 1 6-6h108a6 6 0 0 1 6 6v108a6 6 0 0 1-6 6H526a6 6 0 0 1-6-6z" stroke="#000" stroke-width="2" fill="#fff"/><use xlink:href="#N" transform="matrix(1,0,0,1,525,1685) translate(13.89756944444445 31.84027777777778)"/><use xlink:href="#O" transform="matrix(1,0,0,1,525,1685) translate(14.109157986111114 64.10590277777777)"/><use xlink:href="#P" transform="matrix(1,0,0,1,525,1685) translate(14.488932291666671 96.37152777777777)"/><path d="M500 1446a6 6 0 0 1 6-6h148a6 6 0 0 1 6 6v108a6 6 0 0 1-6 6H506a6 6 0 0 1-6-6z" stroke="#000" stroke-width="2" fill="#fff"/><use xlink:href="#E" transform="matrix(1,0,0,1,505,1445) translate(36.513454861111114 31.84027777777778)"/><use xlink:href="#F" transform="matrix(1,0,0,1,505,1445) translate(36.23676215277778 64.10590277777777)"/><use xlink:href="#Q" transform="matrix(1,0,0,1,505,1445) translate(36.79014756944444 96.37152777777777)"/><path d="M496 1500h-8.65m-11.53 0h-17.3m-11.54 0h-17.3m-11.53 0h-17.3m-11.54 0H372m-11.52 0h-17.3m-11.54 0H323" stroke="#3a414a" stroke-width="6" fill="none"/><path d="M499 1502.97h-3.08v-5.94H499z" stroke="#3a414a" stroke-width=".05" fill="#3a414a"/><path d="M307 1500l13-7.5v15z" stroke="#3a414a" stroke-width="6" fill="#3a414a"/><path d="M284 1740h9.13m12.17 0h18.26m12.17 0H354m12.16 0h18.26m12.17 0h18.25m12.17 0h18.26m12.17 0h18.26m12.18 0H497" stroke="#3a414a" stroke-width="6" fill="none"/><path d="M284.08 1742.97H281v-5.94h3.08z" stroke="#3a414a" stroke-width=".05" fill="#3a414a"/><path d="M513 1740l-13 7.5v-15z" stroke="#3a414a" stroke-width="6" fill="#3a414a"/><path d="M724.4 900h70a6 6 0 0 1 6 6v588a6 6 0 0 1-6 6H683" stroke="#3a414a" stroke-width="6" fill="none"/><path d="M724.47 902.98h-3.08V897h3.07z" stroke="#3a414a" stroke-width=".05" fill="#3a414a"/><path d="M667 1500l13-7.5v15z" stroke="#3a414a" stroke-width="6" fill="#3a414a"/><path d="M724.4 740H834a6 6 0 0 1 6 6v988a6 6 0 0 1-6 6H663" stroke="#3a414a" stroke-width="6" fill="none"/><path d="M724.47 742.98h-3.08V737h3.07z" stroke="#3a414a" stroke-width=".05" fill="#3a414a"/><path d="M647 1740l13-7.5v15z" stroke="#3a414a" stroke-width="6" fill="#3a414a"/><path d="M-235 1686a6 6 0 0 1 6-6h108a6 6 0 0 1 6 6v108a6 6 0 0 1-6 6h-108a6 6 0 0 1-6-6z" stroke="#000" stroke-width="2" fill="#fff"/><use xlink:href="#N" transform="matrix(1,0,0,1,-230,1685) translate(13.89756944444445 31.84027777777778)"/><use xlink:href="#O" transform="matrix(1,0,0,1,-230,1685) translate(14.109157986111114 64.10590277777777)"/><use xlink:href="#P" transform="matrix(1,0,0,1,-230,1685) translate(14.488932291666671 96.37152777777777)"/><path d="M-519.6 1446a6 6 0 0 1 6-6h108a6 6 0 0 1 6 6v108a6 6 0 0 1-6 6h-108a6 6 0 0 1-6-6z" stroke="#000" stroke-width="2" fill="#fff"/><use xlink:href="#H" transform="matrix(1,0,0,1,-514.6107720335458,1445) translate(13.89756944444445 31.84027777777778)"/><use xlink:href="#I" transform="matrix(1,0,0,1,-514.6107720335458,1445) translate(14.109157986111114 64.10590277777777)"/><use xlink:href="#J" transform="matrix(1,0,0,1,-514.6107720335458,1445) translate(14.488932291666671 96.37152777777777)"/><path d="M-519.6 1286a6 6 0 0 1 6-6h108a6 6 0 0 1 6 6v108a6 6 0 0 1-6 6h-108a6 6 0 0 1-6-6z" stroke="#000" stroke-width="2" fill="#fff"/><use xlink:href="#E" transform="matrix(1,0,0,1,-514.6107720335458,1285) translate(16.513454861111114 31.84027777777778)"/><use xlink:href="#F" transform="matrix(1,0,0,1,-514.6107720335458,1285) translate(16.23676215277778 64.10590277777777)"/><use xlink:href="#G" transform="matrix(1,0,0,1,-514.6107720335458,1285) translate(16.790147569444443 96.37152777777777)"/><path d="M500 1586a6 6 0 0 1 6-6h148a6 6 0 0 1 6 6v48a6 6 0 0 1-6 6H506a6 6 0 0 1-6-6z" stroke="#000" stroke-width="2" fill="#fff"/><use xlink:href="#R" transform="matrix(1,0,0,1,505,1585) translate(10.471788194444443 34.02777777777778)"/><path d="M140 1586a6 6 0 0 1 6-6h148a6 6 0 0 1 6 6v48a6 6 0 0 1-6 6H146a6 6 0 0 1-6-6z" stroke="#000" stroke-width="2" fill="#fff"/><use xlink:href="#D" transform="matrix(1,0,0,1,145.0000000000002,1585) translate(10.471788194444443 34.02777777777778)"/><path d="M-255 1586a6 6 0 0 1 6-6h148a6 6 0 0 1 6 6v48a6 6 0 0 1-6 6h-148a6 6 0 0 1-6-6z" stroke="#000" stroke-width="2" fill="#fff"/><use xlink:href="#D" transform="matrix(1,0,0,1,-250.00000000000003,1585) translate(10.471788194444443 34.02777777777778)"/><path d="M136 1610H-72" stroke="#3a414a" stroke-width="6" fill="none"/><path d="M139 1612.97h-3.08v-5.94H139z" stroke="#3a414a" stroke-width=".05" fill="#3a414a"/><path d="M-88 1610l13-7.5v15z" stroke="#3a414a" stroke-width="6" fill="#3a414a"/><path d="M-255 1446a6 6 0 0 1 6-6h148a6 6 0 0 1 6 6v108a6 6 0 0 1-6 6h-148a6 6 0 0 1-6-6z" stroke="#000" stroke-width="2" fill="#fff"/><use xlink:href="#E" transform="matrix(1,0,0,1,-250.00000000000003,1445.0000000000002) translate(36.513454861111114 31.84027777777778)"/><use xlink:href="#F" transform="matrix(1,0,0,1,-250.00000000000003,1445.0000000000002) translate(36.23676215277778 64.10590277777777)"/><use xlink:href="#Q" transform="matrix(1,0,0,1,-250.00000000000003,1445.0000000000002) translate(36.79014756944444 96.37152777777777)"/><path d="M136 1500H-72" stroke="#3a414a" stroke-width="6" fill="none"/><path d="M139 1502.97h-3.08v-5.94H139z" stroke="#3a414a" stroke-width=".05" fill="#3a414a"/><path d="M-88 1500l13-7.5v15z" stroke="#3a414a" stroke-width="6" fill="#3a414a"/><path d="M496 1610h-8.65m-11.53 0h-17.3m-11.54 0h-17.3m-11.53 0h-17.3m-11.54 0H372m-11.52 0h-17.3m-11.54 0H323" stroke="#3a414a" stroke-width="6" fill="none"/><path d="M499 1612.97h-3.08v-5.94H499z" stroke="#3a414a" stroke-width=".05" fill="#3a414a"/><path d="M307 1610l13-7.5v15z" stroke="#3a414a" stroke-width="6" fill="#3a414a"/><path d="M860 526a6 6 0 0 1 6-6h308a6 6 0 0 1 6 6v628a6 6 0 0 1-6 6H866a6 6 0 0 1-6-6z" stroke="#000" stroke-width="4" fill="#fff"/><path d="M860 562.9h320" stroke="#000" stroke-width="4" fill="none"/><g><use xlink:href="#S" transform="matrix(1,0,0,1,868,528) translate(111.814453125 21.58376736111111)"/></g><path d="M860 1206a6 6 0 0 1 6-6h308a6 6 0 0 1 6 6v548a6 6 0 0 1-6 6H866a6 6 0 0 1-6-6z" stroke="#000" stroke-width="4" fill="#fff"/><path d="M860 1242.9h320" stroke="#000" stroke-width="4" fill="none"/><g><use xlink:href="#T" transform="matrix(1,0,0,1,868,1208) translate(76.48546006944444 21.58376736111111)"/></g><path d="M900 886a6 6 0 0 1 6-6h228a6 6 0 0 1 6 6v228a6 6 0 0 1-6 6H906a6 6 0 0 1-6-6z" stroke="#000" stroke-width="2" fill="#54c45e"/><path d="M900 922.9h240" stroke="#000" stroke-width="2" fill="none"/><g><use xlink:href="#U" transform="matrix(1,0,0,1,908,888) translate(30.848524305555557 21.58376736111111)"/><use xlink:href="#V" transform="matrix(1,0,0,1,908,888) translate(108.50694444444444 21.58376736111111)"/><use xlink:href="#W" transform="matrix(1,0,0,1,908,888) translate(161.72960069444446 21.58376736111111)"/></g><path d="M940 966a6 6 0 0 1 6-6h148a6 6 0 0 1 6 6v108a6 6 0 0 1-6 6H946a6 6 0 0 1-6-6z" stroke="#000" stroke-width="2" fill="#fff"/><g><use xlink:href="#A" transform="matrix(1,0,0,1,945,965) translate(36.513454861111114 31.84027777777778)"/><use xlink:href="#B" transform="matrix(1,0,0,1,945,965) translate(36.23676215277778 64.10590277777777)"/><use xlink:href="#Q" transform="matrix(1,0,0,1,945,965) translate(36.79014756944444 96.37152777777777)"/></g><path d="M900 606a6 6 0 0 1 6-6h228a6 6 0 0 1 6 6v228a6 6 0 0 1-6 6H906a6 6 0 0 1-6-6z" stroke="#000" stroke-width="2" fill="#cfe4ff"/><path d="M900 642.9h240" stroke="#000" stroke-width="2" fill="none"/><g><use xlink:href="#X" transform="matrix(1,0,0,1,908,608) translate(35.19965277777777 21.58376736111111)"/><use xlink:href="#Y" transform="matrix(1,0,0,1,908,608) translate(104.15581597222221 21.58376736111111)"/><use xlink:href="#Z" transform="matrix(1,0,0,1,908,608) translate(157.37847222222223 21.58376736111111)"/></g><path d="M940 686a6 6 0 0 1 6-6h148a6 6 0 0 1 6 6v108a6 6 0 0 1-6 6H946a6 6 0 0 1-6-6z" stroke="#000" stroke-width="2" fill="#fff"/><g><use xlink:href="#A" transform="matrix(1,0,0,1,945,685) translate(36.513454861111114 31.84027777777778)"/><use xlink:href="#B" transform="matrix(1,0,0,1,945,685) translate(36.23676215277778 64.10590277777777)"/><use xlink:href="#Q" transform="matrix(1,0,0,1,945,685) translate(36.79014756944444 96.37152777777777)"/></g><path d="M1104 740h7.5m10 0h15m10 0h7.5a6 6 0 0 1 6 6v9.3m0 12.4v18.6m0 12.4v18.6m0 12.4v18.6m0 12.4v18.6m0 12.4v18.6m0 12.4v18.6m0 12.4v18.6m0 12.4v9.3a6 6 0 0 1-6 6h-9.6m-12.8 0h-9.6" stroke="#3a414a" stroke-width="6" fill="none"/><path d="M1104.08 742.98H1101V737h3.08z" stroke="#3a414a" stroke-width=".05" fill="#3a414a"/><path d="M1106 1000l13-7.5v15z" stroke="#3a414a" stroke-width="6" fill="#3a414a"/><path d="M724.4 740H917" stroke="#3a414a" stroke-width="6" fill="none"/><path d="M724.47 742.98h-3.08V737h3.07z" stroke="#3a414a" stroke-width=".05" fill="#3a414a"/><path d="M933 740l-13 7.5v-15z" stroke="#3a414a" stroke-width="6" fill="#3a414a"/><path d="M900 1286a6 6 0 0 1 6-6h228a6 6 0 0 1 6 6v228a6 6 0 0 1-6 6H906a6 6 0 0 1-6-6z" stroke="#000" stroke-width="2" fill="#c3f7c8"/><path d="M900 1322.9h240" stroke="#000" stroke-width="2" fill="none"/><g><use xlink:href="#X" transform="matrix(1,0,0,1,908,1288) translate(35.19965277777777 21.58376736111111)"/><use xlink:href="#Y" transform="matrix(1,0,0,1,908,1288) translate(104.15581597222221 21.58376736111111)"/><use xlink:href="#Z" transform="matrix(1,0,0,1,908,1288) translate(157.37847222222223 21.58376736111111)"/></g><path d="M940 1366a6 6 0 0 1 6-6h148a6 6 0 0 1 6 6v108a6 6 0 0 1-6 6H946a6 6 0 0 1-6-6z" stroke="#000" stroke-width="2" fill="#fff"/><g><use xlink:href="#A" transform="matrix(1,0,0,1,945,1365) translate(36.513454861111114 31.84027777777778)"/><use xlink:href="#B" transform="matrix(1,0,0,1,945,1365) translate(36.23676215277778 64.10590277777777)"/><use xlink:href="#Q" transform="matrix(1,0,0,1,945,1365) translate(36.79014756944444 96.37152777777777)"/></g><path d="M1104 1038.84h50a6 6 0 0 1 6 6v348.9a6 6 0 0 1-6 6h-31" stroke="#3a414a" stroke-width="6" fill="none"/><path d="M1104.08 1041.82H1101v-5.95h3.08z" stroke="#3a414a" stroke-width=".05" fill="#3a414a"/><path d="M1107 1399.74l13-7.5v15z" stroke="#3a414a" stroke-width="6" fill="#3a414a"/><path d="M960 1566a6 6 0 0 1 6-6h108a6 6 0 0 1 6 6v144a6 6 0 0 1-6 6H966a6 6 0 0 1-6-6z" stroke="#000" stroke-width="2" fill="#fff"/><path d="M960 1602.9h120" stroke="#000" stroke-width="2" fill="none"/><g><use xlink:href="#aa" transform="matrix(1,0,0,1,968,1568) translate(10.566623263888893 21.58376736111111)"/></g><g><use xlink:href="#A" transform="matrix(1,0,0,1,972,1610.8880208333333) translate(9.013454861111114 24.818142361111114)"/><use xlink:href="#B" transform="matrix(1,0,0,1,972,1610.8880208333333) translate(8.736762152777779 57.083767361111114)"/><use xlink:href="#Q" transform="matrix(1,0,0,1,972,1610.8880208333333) translate(9.290147569444443 89.34939236111111)"/></g><path d="M1103.5 1440.5h7.58m10.1 0h15.14m10.1 0h7.58a6 6 0 0 1 6 6v7.95m0 10.6v15.9m0 10.6v15.9m0 10.6v15.9m0 10.6v15.9m0 10.6v15.9m0 10.6v15.9m0 10.6v7.95a6 6 0 0 1-6 6h-7.88m-10.5 0h-15.75m-10.5 0h-7.88" stroke="#3a414a" stroke-width="5" fill="none"/><path d="M1103.56 1442.97H1101v-4.94h2.56z" stroke="#3a414a" stroke-width=".05" fill="#3a414a"/><path d="M1086 1638l13-7.5v15z" stroke="#3a414a" stroke-width="5" fill="#3a414a"/><path d="M-111 1740h248" stroke="#3a414a" stroke-width="6" fill="none"/><path d="M-110.92 1742.97H-114v-5.94h3.08z" stroke="#3a414a" stroke-width=".05" fill="#3a414a"/><path d="M153 1740l-13 7.5v-15z" stroke="#3a414a" stroke-width="6" fill="#3a414a"/><path d="M-259 1500h-6.8m-9.1 0h-13.6m-9.08 0h-6.8a6 6 0 0 1-6-6v-8.88m0-11.84v-17.76m0-11.84v-17.76m0-11.84v-17.76m0-11.84v-17.76m0-11.84V1346a6 6 0 0 0-6-6h-9.04m-12.05 0h-18.07m-12.05 0h-9.02" stroke="#3a414a" stroke-width="6" fill="none"/><path d="M-256 1502.97h-3.08v-5.94h3.08z" stroke="#3a414a" stroke-width=".05" fill="#3a414a"/><path d="M-392.6 1340l12.98-7.5v15z" stroke="#3a414a" stroke-width="6" fill="#3a414a"/><path d="M-395.6 1500h7.43m9.92 0h14.9m9.9 0h7.45a6 6 0 0 1 6 6v8.55m0 11.4v17.1m0 11.4v17.1m0 11.4v17.1m0 11.4v17.1m0 11.4v17.1m0 11.4v17.1m0 11.4v17.1m0 11.4v8.55a6 6 0 0 0 6 6h7.6m10.14 0h15.2m10.13 0h15.2m10.14 0h7.6" stroke="#3a414a" stroke-width="6" fill="none"/><path d="M-395.53 1502.97h-3.08v-5.94h3.07z" stroke="#3a414a" stroke-width=".05" fill="#3a414a"/><path d="M-242 1740l-13 7.5v-15z" stroke="#3a414a" stroke-width="6" fill="#3a414a"/><path d="M-259 1610h-6.8m-9.1 0h-13.6m-9.08 0h-6.8a6 6 0 0 0-6 6v8.4m0 11.2v16.8m0 11.2v16.8m0 11.2v16.8m0 11.2v16.8m0 11.2v16.8m0 11.2v8.4a6 6 0 0 1-6 6h-6.43m-8.57 0h-6.42" stroke="#3a414a" stroke-width="6" fill="none"/><path d="M-256 1612.97h-3.08v-5.94h3.08z" stroke="#3a414a" stroke-width=".05" fill="#3a414a"/><path d="M-353.78 1790l13-7.5v15z" stroke="#3a414a" stroke-width="6" fill="#3a414a"/><path d="M-140 836v-13" stroke="#3a414a" stroke-width="6" fill="none"/><path d="M-137.03 839h-5.94v-3.08h5.94z" stroke="#3a414a" stroke-width=".05" fill="#3a414a"/><path d="M-140 807l7.5 13h-15z" stroke="#3a414a" stroke-width="6" fill="#3a414a"/><defs><path d="M754 19C571 19 479-89 437-179h-14V0H128v-1490h300v560h9c41-89 129-202 319-202 248 0 453 193 453 575 0 372-197 576-455 576zm-92-241c156 0 240-139 240-336 0-196-83-334-240-334-154 0-241 131-241 334 0 202 88 336 241 336" id="ab"/><path d="M128 0v-1118h290v195h12c54-169 184-238 367-200v268c-27-8-86-15-130-15-138 0-239 95-239 234V0H128" id="ac"/><path d="M128 0v-1118h300V0H128zm150-1264c-91 0-165-68-165-154 0-85 74-154 165-154 90 0 165 69 165 154 0 86-75 154-165 154" id="ad"/><path d="M537 19C279 19 81-185 81-557c0-382 206-575 454-575 190 0 278 113 318 202h10v-560h300V0H868v-179h-15C812-89 719 19 537 19zm92-241c153 0 240-134 240-336 0-203-86-334-240-334-158 0-240 138-240 334 0 197 84 336 240 336" id="ae"/><path d="M625 442c-280 0-454-114-503-274l258-72c28 63 97 128 243 128 153 0 246-69 246-216v-206h-23C805-108 717-16 536-16 284-16 81-191 81-561c0-378 208-571 456-571 188 0 280 113 321 202h13v-188h295V-9c0 303-226 451-541 451zm5-686c153 0 240-119 240-319 0-198-86-329-240-329-158 0-241 137-241 329 0 195 85 319 241 319" id="af"/><path d="M633 22C291 22 81-200 81-553c0-345 210-579 537-579 292 0 525 185 525 567v84H378c7 183 109 277 260 277 105 0 184-46 216-132l272 51C1071-99 893 22 633 22zM380-669h474c-15-146-94-237-233-237-143 0-229 99-241 237" id="ag"/><path d="M342 19c-98 0-173-75-173-172s75-172 173-172 173 75 173 172S440 19 342 19" id="ah"/><path d="M128 418v-1536h295v188h14c41-89 129-202 319-202 248 0 453 193 453 575 0 372-197 576-455 576-183 0-275-108-317-198h-9v597H128zm534-640c156 0 240-139 240-336 0-196-83-334-240-334-154 0-241 131-241 334 0 202 88 336 241 336" id="ai"/><path d="M120 396l69-226c123 42 245 23 254-107l8-60L31-1118h319c87 288 199 559 259 872 72-308 185-583 277-872h315L726 132c-68 181-186 294-410 294-79 0-153-13-196-30" id="aj"/><g id="a"><use transform="matrix(0.010850694444444444,0,0,0.010850694444444444,0,0)" xlink:href="#ab"/><use transform="matrix(0.010850694444444444,0,0,0.010850694444444444,14.008246527777777,0)" xlink:href="#ac"/><use transform="matrix(0.010850694444444444,0,0,0.010850694444444444,23.220486111111104,0)" xlink:href="#ad"/><use transform="matrix(0.010850694444444444,0,0,0.010850694444444444,29.24262152777777,0)" xlink:href="#ae"/><use transform="matrix(0.010850694444444444,0,0,0.010850694444444444,43.25086805555555,0)" xlink:href="#af"/><use transform="matrix(0.010850694444444444,0,0,0.010850694444444444,57.29166666666666,0)" xlink:href="#ag"/><use transform="matrix(0.010850694444444444,0,0,0.010850694444444444,70.52951388888889,0)" xlink:href="#ah"/><use transform="matrix(0.010850694444444444,0,0,0.010850694444444444,77.95138888888889,0)" xlink:href="#ai"/><use transform="matrix(0.010850694444444444,0,0,0.010850694444444444,91.55815972222221,0)" xlink:href="#aj"/></g><path d="M628 22C291 22 81-210 81-554c0-346 210-578 547-578 265 0 455 142 497 372l-279 52c-25-116-99-188-215-188-160 0-244 139-244 341 0 200 84 341 244 341 116 0 193-74 217-195l279 51C1085-123 896 22 628 22" id="ak"/><path d="M428-1490V0H128v-1490h300" id="al"/><path d="M428-647V0H128v-1118h283l4 231c63-156 176-245 348-245 232 0 384 159 384 421V0H847v-659c0-139-76-222-202-222-128 0-217 86-217 234" id="am"/><path d="M683-1118v229H474v562c0 71 29 104 102 104 23 0 73-7 95-13l43 225C647 9 580 16 520 16 296 16 174-96 174-301v-588H20v-229h154v-266h300v266h209" id="an"/><path d="M975 0v231H0V0h975" id="ao"/><g id="b"><use transform="matrix(0.010850694444444444,0,0,0.010850694444444444,0,0)" xlink:href="#ak"/><use transform="matrix(0.010850694444444444,0,0,0.010850694444444444,13.075086805555555,0)" xlink:href="#al"/><use transform="matrix(0.010850694444444444,0,0,0.010850694444444444,19.09722222222222,0)" xlink:href="#ad"/><use transform="matrix(0.010850694444444444,0,0,0.010850694444444444,25.11935763888889,0)" xlink:href="#ag"/><use transform="matrix(0.010850694444444444,0,0,0.010850694444444444,38.35720486111111,0)" xlink:href="#am"/><use transform="matrix(0.010850694444444444,0,0,0.010850694444444444,52.19184027777778,0)" xlink:href="#an"/><use transform="matrix(0.010850694444444444,0,0,0.010850694444444444,60.32986111111111,0)" xlink:href="#ao"/><use transform="matrix(0.010850694444444444,0,0,0.010850694444444444,70.90928819444444,0)" xlink:href="#an"/><use transform="matrix(0.010850694444444444,0,0,0.010850694444444444,78.83029513888889,0)" xlink:href="#ak"/><use transform="matrix(0.010850694444444444,0,0,0.010850694444444444,91.90538194444444,0)" xlink:href="#ai"/><use transform="matrix(0.010850694444444444,0,0,0.010850694444444444,105.91362847222221,0)" xlink:href="#ah"/><use transform="matrix(0.010850694444444444,0,0,0.010850694444444444,113.33550347222221,0)" xlink:href="#ai"/><use transform="matrix(0.010850694444444444,0,0,0.010850694444444444,126.94227430555556,0)" xlink:href="#aj"/></g><path d="M681 22C323 22 94-145 85-462h297c10 151 131 226 296 226 163 0 271-77 271-190 0-102-95-149-257-189l-164-41c-252-61-403-188-403-405 0-269 236-449 560-449 330 0 546 183 551 445H941c-11-119-106-188-259-188-156 0-244 72-244 172-3 156 226 185 373 221 250 61 445 186 445 436 0 271-213 446-575 446" id="ap"/><path d="M628 22C291 22 81-210 81-554c0-346 210-578 547-578 336 0 547 232 547 578 0 344-211 576-547 576zm0-236c160 0 242-146 242-341 0-197-82-341-242-341S387-753 387-555c0 195 81 341 241 341zM519-1260l139-311h278l-207 311H519" id="aq"/><path d="M628 22C291 22 81-210 81-554c0-346 210-578 547-578 336 0 547 232 547 578 0 344-211 576-547 576zm0-236c160 0 242-146 242-341 0-197-82-341-242-341S387-753 387-555c0 195 81 341 241 341" id="ar"/><g id="c"><use transform="matrix(0.010850694444444444,0,0,0.010850694444444444,0,0)" xlink:href="#ap"/><use transform="matrix(0.010850694444444444,0,0,0.010850694444444444,14.55078125,0)" xlink:href="#ad"/><use transform="matrix(0.010850694444444444,0,0,0.010850694444444444,20.572916666666664,0)" xlink:href="#am"/><use transform="matrix(0.010850694444444444,0,0,0.010850694444444444,34.40755208333333,0)" xlink:href="#aq"/><use transform="matrix(0.010850694444444444,0,0,0.010850694444444444,48.03602430555556,0)" xlink:href="#an"/><use transform="matrix(0.010850694444444444,0,0,0.010850694444444444,56.174045138888886,0)" xlink:href="#ad"/><use transform="matrix(0.010850694444444444,0,0,0.010850694444444444,62.19618055555555,0)" xlink:href="#ak"/><use transform="matrix(0.010850694444444444,0,0,0.010850694444444444,75.2712673611111,0)" xlink:href="#ar"/></g><g id="d"><use transform="matrix(0.010850694444444444,0,0,0.010850694444444444,0,0)" xlink:href="#ak"/><use transform="matrix(0.010850694444444444,0,0,0.010850694444444444,13.075086805555555,0)" xlink:href="#al"/><use transform="matrix(0.010850694444444444,0,0,0.010850694444444444,19.09722222222222,0)" xlink:href="#ai"/><use transform="matrix(0.010850694444444444,0,0,0.010850694444444444,33.10546875,0)" xlink:href="#ah"/><use transform="matrix(0.010850694444444444,0,0,0.010850694444444444,40.52734375,0)" xlink:href="#ai"/><use transform="matrix(0.010850694444444444,0,0,0.010850694444444444,54.13411458333333,0)" xlink:href="#aj"/></g><path d="M75-1237v-253h1217v253H837V0H531v-1237H75" id="as"/><path d="M428-647V0H128v-1490h294v586c65-146 175-228 341-228 232 0 385 159 385 421V0H847v-659c0-139-76-222-202-222-128 0-217 86-217 234" id="at"/><path d="M440 22C227 22 68-92 68-313c0-250 202-322 422-343 195-21 271-24 271-105 0-95-63-149-175-149-116 0-187 57-211 129l-275-46c57-194 237-305 487-305 240 0 474 108 474 379V0H777v-155h-10C713-51 605 22 440 22zm85-211c140 0 238-93 238-211v-121c-37 26-156 42-222 51-111 16-185 59-185 149 0 87 70 132 169 132" id="au"/><g id="e"><use transform="matrix(0.010850694444444444,0,0,0.010850694444444444,0,0)" xlink:href="#as"/><use transform="matrix(0.010850694444444444,0,0,0.010850694444444444,14.832899305555555,0)" xlink:href="#at"/><use transform="matrix(0.010850694444444444,0,0,0.010850694444444444,28.66753472222222,0)" xlink:href="#ac"/><use transform="matrix(0.010850694444444444,0,0,0.010850694444444444,37.174479166666664,0)" xlink:href="#ag"/><use transform="matrix(0.010850694444444444,0,0,0.010850694444444444,50.62934027777778,0)" xlink:href="#au"/><use transform="matrix(0.010850694444444444,0,0,0.010850694444444444,63.53081597222221,0)" xlink:href="#ae"/></g><path d="M749-1490V0H444v-1221h-10L93-980v-279l329-231h327" id="av"/><use transform="matrix(0.010850694444444444,0,0,0.010850694444444444,0,0)" xlink:href="#av" id="f"/><path d="M786 20C389 20 94-260 94-744c0-487 299-766 692-766 339 0 597 194 641 529h-309c-28-162-156-258-326-258-233 0-388 179-388 495 0 323 157 493 387 493 170 0 298-97 328-259h309c-34 277-266 530-642 530" id="aw"/><g id="g"><use transform="matrix(0.010850694444444444,0,0,0.010850694444444444,0,0)" xlink:href="#aw"/><use transform="matrix(0.010850694444444444,0,0,0.010850694444444444,16.438802083333332,0)" xlink:href="#ar"/><use transform="matrix(0.010850694444444444,0,0,0.010850694444444444,30.067274305555554,0)" xlink:href="#ai"/><use transform="matrix(0.010850694444444444,0,0,0.010850694444444444,44.07552083333333,0)" xlink:href="#ai"/><use transform="matrix(0.010850694444444444,0,0,0.010850694444444444,58.08376736111111,0)" xlink:href="#ag"/><use transform="matrix(0.010850694444444444,0,0,0.010850694444444444,71.32161458333333,0)" xlink:href="#al"/><use transform="matrix(0.010850694444444444,0,0,0.010850694444444444,77.34375,0)" xlink:href="#ad"/><use transform="matrix(0.010850694444444444,0,0,0.010850694444444444,83.36588541666667,0)" xlink:href="#au"/></g><path d="M128 0v-1118h278l12 217c60-163 185-234 319-234 143 0 236 81 288 251 63-172 205-251 359-251 205 0 357 138 357 381V0h-301v-697c0-126-76-187-177-187-114 0-184 79-184 196V0H789v-705c0-109-72-179-174-179-106 0-187 74-187 208V0H128" id="ax"/><g id="h"><use transform="matrix(0.010850694444444444,0,0,0.010850694444444444,0,0)" xlink:href="#ap"/><use transform="matrix(0.010850694444444444,0,0,0.010850694444444444,14.55078125,0)" xlink:href="#ad"/><use transform="matrix(0.010850694444444444,0,0,0.010850694444444444,20.572916666666664,0)" xlink:href="#ax"/></g><g id="i"><use transform="matrix(0.010850694444444444,0,0,0.010850694444444444,0,0)" xlink:href="#aw"/><use transform="matrix(0.010850694444444444,0,0,0.010850694444444444,16.438802083333332,0)" xlink:href="#al"/><use transform="matrix(0.010850694444444444,0,0,0.010850694444444444,22.4609375,0)" xlink:href="#ad"/><use transform="matrix(0.010850694444444444,0,0,0.010850694444444444,28.483072916666664,0)" xlink:href="#ag"/><use transform="matrix(0.010850694444444444,0,0,0.010850694444444444,41.720920138888886,0)" xlink:href="#am"/><use transform="matrix(0.010850694444444444,0,0,0.010850694444444444,55.55555555555556,0)" xlink:href="#an"/></g><path d="M789 20C394 20 94-260 94-744c0-487 300-766 695-766s695 279 695 766c0 485-300 764-695 764zm0-271c231 0 385-174 385-493 0-321-154-495-385-495s-385 175-385 495c0 319 154 493 385 493" id="ay"/><path d="M135 0v-1490h581c339 0 533 210 533 503 0 295-197 500-540 500H440V0H135zm305-733h220c186 0 274-104 274-254s-88-251-275-251H440v505" id="az"/><g id="j"><use transform="matrix(0.010850694444444444,0,0,0.010850694444444444,0,0)" xlink:href="#ay"/><use transform="matrix(0.010850694444444444,0,0,0.010850694444444444,17.122395833333332,0)" xlink:href="#az"/><use transform="matrix(0.010850694444444444,0,0,0.010850694444444444,31.521267361111104,0)" xlink:href="#aw"/></g><path d="M750 21c-371 0-615-218-615-544v-967h305v942c0 174 123 299 310 299s309-125 309-299v-942h306v967c0 326-247 544-615 544" id="aA"/><path d="M49 0l509-1490h400L1480 0h-339l-115-346H497L386 0H49zm524-585h374c-75-213-124-402-192-666-66 268-110 453-182 666" id="aB"/><g id="k"><use transform="matrix(0.010850694444444444,0,0,0.010850694444444444,0,0)" xlink:href="#aA"/><use transform="matrix(0.010850694444444444,0,0,0.010850694444444444,15.831163194444445,0)" xlink:href="#aB"/></g><path d="M572 22C302 22 117-98 78-306l279-48c29 105 101 156 224 156 114 0 185-48 185-115 0-118-228-130-337-155-215-49-322-150-322-317 0-215 187-347 470-347 265 0 424 116 466 298l-266 47c-24-76-87-130-196-130-98 0-174 46-174 113 0 56 38 95 144 117l201 40c216 44 320 143 320 302 0 220-207 367-500 367" id="aC"/><g id="l"><use transform="matrix(0.010850694444444444,0,0,0.010850694444444444,0,0)" xlink:href="#az"/><use transform="matrix(0.010850694444444444,0,0,0.010850694444444444,14.398871527777777,0)" xlink:href="#ac"/><use transform="matrix(0.010850694444444444,0,0,0.010850694444444444,22.90581597222222,0)" xlink:href="#ar"/><use transform="matrix(0.010850694444444444,0,0,0.010850694444444444,36.53428819444444,0)" xlink:href="#aC"/><use transform="matrix(0.010850694444444444,0,0,0.010850694444444444,48.98003472222222,0)" xlink:href="#aj"/><use transform="matrix(0.010850694444444444,0,0,0.010850694444444444,62.35894097222222,0)" xlink:href="#aC"/></g><g id="m"><use transform="matrix(0.010850694444444444,0,0,0.010850694444444444,0,0)" xlink:href="#ay"/><use transform="matrix(0.010850694444444444,0,0,0.010850694444444444,17.122395833333332,0)" xlink:href="#az"/><use transform="matrix(0.010850694444444444,0,0,0.010850694444444444,31.521267361111104,0)" xlink:href="#aw"/></g><g id="n"><use transform="matrix(0.010850694444444444,0,0,0.010850694444444444,0,0)" xlink:href="#aA"/><use transform="matrix(0.010850694444444444,0,0,0.010850694444444444,15.831163194444445,0)" xlink:href="#aB"/></g><path d="M513 14c-232 0-385-159-385-421v-711h300v659c0 139 76 222 202 222 127 0 217-86 217-234v-647h301V0H864l-4-232C797-74 683 14 513 14" id="aD"/><g id="o"><use transform="matrix(0.010850694444444444,0,0,0.010850694444444444,0,0)" xlink:href="#ap"/><use transform="matrix(0.010850694444444444,0,0,0.010850694444444444,14.55078125,0)" xlink:href="#ad"/><use transform="matrix(0.010850694444444444,0,0,0.010850694444444444,20.572916666666664,0)" xlink:href="#ax"/><use transform="matrix(0.010850694444444444,0,0,0.010850694444444444,40.85286458333333,0)" xlink:href="#aD"/><use transform="matrix(0.010850694444444444,0,0,0.010850694444444444,54.687499999999986,0)" xlink:href="#al"/><use transform="matrix(0.010850694444444444,0,0,0.010850694444444444,60.70963541666666,0)" xlink:href="#au"/><use transform="matrix(0.010850694444444444,0,0,0.010850694444444444,73.6111111111111,0)" xlink:href="#an"/><use transform="matrix(0.010850694444444444,0,0,0.010850694444444444,81.74913194444443,0)" xlink:href="#ad"/><use transform="matrix(0.010850694444444444,0,0,0.010850694444444444,87.7712673611111,0)" xlink:href="#ar"/><use transform="matrix(0.010850694444444444,0,0,0.010850694444444444,101.39973958333331,0)" xlink:href="#am"/></g><path d="M443 0L31-1118h319c90 293 199 572 268 885 66-313 175-593 264-885h315L784 0H443" id="aE"/><g id="p"><use transform="matrix(0.010850694444444444,0,0,0.010850694444444444,0,0)" xlink:href="#ap"/><use transform="matrix(0.010850694444444444,0,0,0.010850694444444444,14.55078125,0)" xlink:href="#ag"/><use transform="matrix(0.010850694444444444,0,0,0.010850694444444444,27.78862847222222,0)" xlink:href="#ac"/><use transform="matrix(0.010850694444444444,0,0,0.010850694444444444,37.18532986111111,0)" xlink:href="#aE"/><use transform="matrix(0.010850694444444444,0,0,0.010850694444444444,50.10850694444444,0)" xlink:href="#ag"/><use transform="matrix(0.010850694444444444,0,0,0.010850694444444444,63.346354166666664,0)" xlink:href="#ac"/></g><g id="q"><use transform="matrix(0.010850694444444444,0,0,0.010850694444444444,0,0)" xlink:href="#aw"/><use transform="matrix(0.010850694444444444,0,0,0.010850694444444444,16.438802083333332,0)" xlink:href="#ar"/><use transform="matrix(0.010850694444444444,0,0,0.010850694444444444,30.067274305555554,0)" xlink:href="#ai"/><use transform="matrix(0.010850694444444444,0,0,0.010850694444444444,44.07552083333333,0)" xlink:href="#ai"/><use transform="matrix(0.010850694444444444,0,0,0.010850694444444444,58.08376736111111,0)" xlink:href="#ag"/><use transform="matrix(0.010850694444444444,0,0,0.010850694444444444,71.32161458333333,0)" xlink:href="#al"/><use transform="matrix(0.010850694444444444,0,0,0.010850694444444444,77.34375,0)" xlink:href="#ad"/><use transform="matrix(0.010850694444444444,0,0,0.010850694444444444,83.36588541666667,0)" xlink:href="#au"/></g><g id="r"><use transform="matrix(0.010850694444444444,0,0,0.010850694444444444,0,0)" xlink:href="#ap"/><use transform="matrix(0.010850694444444444,0,0,0.010850694444444444,14.55078125,0)" xlink:href="#ad"/><use transform="matrix(0.010850694444444444,0,0,0.010850694444444444,20.572916666666664,0)" xlink:href="#ax"/></g><g id="s"><use transform="matrix(0.010850694444444444,0,0,0.010850694444444444,0,0)" xlink:href="#ap"/><use transform="matrix(0.010850694444444444,0,0,0.010850694444444444,14.55078125,0)" xlink:href="#ag"/><use transform="matrix(0.010850694444444444,0,0,0.010850694444444444,27.78862847222222,0)" xlink:href="#ac"/><use transform="matrix(0.010850694444444444,0,0,0.010850694444444444,37.18532986111111,0)" xlink:href="#aE"/><use transform="matrix(0.010850694444444444,0,0,0.010850694444444444,50.10850694444444,0)" xlink:href="#ag"/><use transform="matrix(0.010850694444444444,0,0,0.010850694444444444,63.346354166666664,0)" xlink:href="#ac"/></g><path d="M768-1560L288 224H28l480-1784h260" id="aF"/><path d="M440-1490V0H135v-1490h305" id="aG"/><g id="t"><use transform="matrix(0.010850694444444444,0,0,0.010850694444444444,0,0)" xlink:href="#as"/><use transform="matrix(0.010850694444444444,0,0,0.010850694444444444,14.127604166666666,0)" xlink:href="#aw"/><use transform="matrix(0.010850694444444444,0,0,0.010850694444444444,30.56640625,0)" xlink:href="#az"/><use transform="matrix(0.010850694444444444,0,0,0.010850694444444444,44.96527777777778,0)" xlink:href="#aF"/><use transform="matrix(0.010850694444444444,0,0,0.010850694444444444,53.59157986111112,0)" xlink:href="#aG"/><use transform="matrix(0.010850694444444444,0,0,0.010850694444444444,59.83072916666667,0)" xlink:href="#az"/></g><g id="u"><use transform="matrix(0.010850694444444444,0,0,0.010850694444444444,0,0)" xlink:href="#as"/><use transform="matrix(0.010850694444444444,0,0,0.010850694444444444,14.832899305555555,0)" xlink:href="#at"/><use transform="matrix(0.010850694444444444,0,0,0.010850694444444444,28.66753472222222,0)" xlink:href="#ac"/><use transform="matrix(0.010850694444444444,0,0,0.010850694444444444,37.174479166666664,0)" xlink:href="#ag"/><use transform="matrix(0.010850694444444444,0,0,0.010850694444444444,50.62934027777778,0)" xlink:href="#au"/><use transform="matrix(0.010850694444444444,0,0,0.010850694444444444,63.53081597222221,0)" xlink:href="#ae"/></g><path d="M124 0v-220l528-495c135-132 210-216 210-336 0-133-98-215-231-215-139 0-229 88-229 233H110c0-290 214-477 523-477 315 0 525 182 525 440 0 167-80 305-385 586L548-262v11h630V0H124" id="aH"/><use transform="matrix(0.010850694444444444,0,0,0.010850694444444444,0,0)" xlink:href="#aH" id="v"/><path d="M42 0l360-574-338-544h324c72 124 151 261 209 394 58-134 140-271 215-394h318L785-570 1146 0H824c-79-136-169-280-234-425C528-278 439-134 360 0H42" id="aI"/><g id="w"><use transform="matrix(0.010850694444444444,0,0,0.010850694444444444,0,0)" xlink:href="#at"/><use transform="matrix(0.010850694444444444,0,0,0.010850694444444444,13.834635416666666,0)" xlink:href="#ad"/><use transform="matrix(0.010850694444444444,0,0,0.010850694444444444,19.856770833333332,0)" xlink:href="#aC"/><use transform="matrix(0.010850694444444444,0,0,0.010850694444444444,32.30251736111111,0)" xlink:href="#an"/><use transform="matrix(0.010850694444444444,0,0,0.010850694444444444,40.22352430555556,0)" xlink:href="#ar"/><use transform="matrix(0.010850694444444444,0,0,0.010850694444444444,53.85199652777778,0)" xlink:href="#ac"/><use transform="matrix(0.010850694444444444,0,0,0.010850694444444444,63.06423611111111,0)" xlink:href="#ad"/><use transform="matrix(0.010850694444444444,0,0,0.010850694444444444,69.08637152777777,0)" xlink:href="#au"/><use transform="matrix(0.010850694444444444,0,0,0.010850694444444444,81.98784722222221,0)" xlink:href="#ae"/><use transform="matrix(0.010850694444444444,0,0,0.010850694444444444,95.99609374999997,0)" xlink:href="#ar"/><use transform="matrix(0.010850694444444444,0,0,0.010850694444444444,109.6245659722222,0)" xlink:href="#ac"/><use transform="matrix(0.010850694444444444,0,0,0.010850694444444444,117.28515624999997,0)" xlink:href="#ah"/><use transform="matrix(0.010850694444444444,0,0,0.010850694444444444,124.70703125,0)" xlink:href="#an"/><use transform="matrix(0.010850694444444444,0,0,0.010850694444444444,132.84505208333331,0)" xlink:href="#aI"/><use transform="matrix(0.010850694444444444,0,0,0.010850694444444444,146.0503472222222,0)" xlink:href="#an"/></g><path d="M98-1322v-168h1126v168H757V0H567v-1322H98" id="aJ"/><path d="M471 26C259 26 90-98 90-318c0-256 228-303 435-329 202-27 287-16 287-108 0-139-79-219-234-219-161 0-248 86-283 164l-173-57c86-203 278-265 451-265 150 0 419 46 419 395V0H815v-152h-12C765-73 660 26 471 26zm31-159c199 0 310-134 310-271v-155c-30 35-226 55-295 64-131 17-246 59-246 186 0 116 97 176 231 176" id="aK"/><path d="M158 0v-1118h174v172h12c41-113 157-188 290-188 26 0 70 2 91 3v181c-11-2-60-10-108-10-161 0-279 109-279 260V0H158" id="aL"/><path d="M611 442c-248 0-391-105-460-228l146-94c47 65 117 165 314 165 178 0 307-82 307-266v-224h-17C863-141 792-18 576-18c-268 0-472-195-472-546 0-346 197-568 476-568 216 0 288 133 326 193h17v-179h175V29c0 289-215 413-487 413zm-5-620c203 0 314-146 314-390 0-237-108-403-314-403-213 0-319 180-319 403 0 230 109 390 319 390" id="aM"/><path d="M628 24c-324 0-524-230-524-574 0-343 198-582 503-582 237 0 487 146 487 559v75H286c9 234 145 362 343 362 132 0 231-58 273-172l174 48C1024-91 857 24 628 24zM287-650h624c-17-190-120-322-304-322-192 0-309 151-320 322" id="aN"/><path d="M598-1118v154H368v674c0 100 37 144 132 144 23 0 62-6 92-12L629-6c-37 13-88 20-134 20-193 0-307-107-307-290v-688H20v-154h168v-266h180v266h230" id="aO"/><path d="M57 0l534-763-501-727h220c122 187 296 416 391 605 94-191 272-419 396-605h215L811-770 1340 0h-219C986-204 811-426 699-640 588-430 407-202 273 0H57" id="aP"/><g id="x"><use transform="matrix(0.010850694444444444,0,0,0.010850694444444444,0,0)" xlink:href="#aJ"/><use transform="matrix(0.010850694444444444,0,0,0.010850694444444444,12.71701388888889,0)" xlink:href="#aK"/><use transform="matrix(0.010850694444444444,0,0,0.010850694444444444,25.1953125,0)" xlink:href="#aL"/><use transform="matrix(0.010850694444444444,0,0,0.010850694444444444,33.19227430555556,0)" xlink:href="#aM"/><use transform="matrix(0.010850694444444444,0,0,0.010850694444444444,46.82074652777778,0)" xlink:href="#aN"/><use transform="matrix(0.010850694444444444,0,0,0.010850694444444444,59.77647569444444,0)" xlink:href="#aO"/><use transform="matrix(0.010850694444444444,0,0,0.010850694444444444,67.04644097222221,0)" xlink:href="#aP"/></g><path d="M600 0v-610L52-1490h220l295 481c50 82 90 150 130 243 40-96 80-164 128-243l294-481h219L790-610V0H600" id="aQ"/><g id="y"><use transform="matrix(0.010850694444444444,0,0,0.010850694444444444,0,0)" xlink:href="#aJ"/><use transform="matrix(0.010850694444444444,0,0,0.010850694444444444,12.71701388888889,0)" xlink:href="#aK"/><use transform="matrix(0.010850694444444444,0,0,0.010850694444444444,25.1953125,0)" xlink:href="#aL"/><use transform="matrix(0.010850694444444444,0,0,0.010850694444444444,33.19227430555556,0)" xlink:href="#aM"/><use transform="matrix(0.010850694444444444,0,0,0.010850694444444444,46.82074652777778,0)" xlink:href="#aN"/><use transform="matrix(0.010850694444444444,0,0,0.010850694444444444,59.77647569444444,0)" xlink:href="#aO"/><use transform="matrix(0.010850694444444444,0,0,0.010850694444444444,66.69921875,0)" xlink:href="#aQ"/></g><path d="M130 0v-134l666-991c45-67 96-135 147-202-269 9-546 3-821 5v-168h1036v136L502-379c-49 72-103 145-157 216 268-9 546-3 821-5V0H130" id="aR"/><g id="z"><use transform="matrix(0.010850694444444444,0,0,0.010850694444444444,0,0)" xlink:href="#aJ"/><use transform="matrix(0.010850694444444444,0,0,0.010850694444444444,12.71701388888889,0)" xlink:href="#aK"/><use transform="matrix(0.010850694444444444,0,0,0.010850694444444444,25.1953125,0)" xlink:href="#aL"/><use transform="matrix(0.010850694444444444,0,0,0.010850694444444444,33.19227430555556,0)" xlink:href="#aM"/><use transform="matrix(0.010850694444444444,0,0,0.010850694444444444,46.82074652777778,0)" xlink:href="#aN"/><use transform="matrix(0.010850694444444444,0,0,0.010850694444444444,59.77647569444444,0)" xlink:href="#aO"/><use transform="matrix(0.010850694444444444,0,0,0.010850694444444444,67.04644097222221,0)" xlink:href="#aR"/></g><path d="M645 0H180v-1490h484c435 0 692 280 692 742 0 466-257 748-711 748zM370-168h263c363 0 539-218 539-580 0-358-176-574-521-574H370v1154" id="aS"/><path d="M613 24c-304 0-509-231-509-576 0-350 205-580 509-580 305 0 511 230 511 580 0 345-206 576-511 576zm0-161c226 0 329-195 329-415 0-222-103-419-329-419-223 0-326 196-326 419 0 220 103 415 326 415" id="aT"/><path d="M338-670V0H158v-1118h173l1 207c72-158 192-221 342-221 226 0 378 139 378 422V0H872v-695c0-172-96-275-252-275-161 0-282 109-282 300" id="aU"/><g id="A"><use transform="matrix(0.010850694444444444,0,0,0.010850694444444444,0,0)" xlink:href="#aS"/><use transform="matrix(0.010850694444444444,0,0,0.010850694444444444,16.03732638888889,0)" xlink:href="#aL"/><use transform="matrix(0.010850694444444444,0,0,0.010850694444444444,24.034288194444443,0)" xlink:href="#aT"/><use transform="matrix(0.010850694444444444,0,0,0.010850694444444444,37.35894097222222,0)" xlink:href="#aU"/><use transform="matrix(0.010850694444444444,0,0,0.010850694444444444,50.48828125,0)" xlink:href="#aN"/><use transform="matrix(0.010850694444444444,0,0,0.010850694444444444,62.814670138888886,0)" xlink:href="#aP"/></g><g id="B"><use transform="matrix(0.010850694444444444,0,0,0.010850694444444444,0,0)" xlink:href="#aS"/><use transform="matrix(0.010850694444444444,0,0,0.010850694444444444,16.03732638888889,0)" xlink:href="#aL"/><use transform="matrix(0.010850694444444444,0,0,0.010850694444444444,24.034288194444443,0)" xlink:href="#aT"/><use transform="matrix(0.010850694444444444,0,0,0.010850694444444444,37.35894097222222,0)" xlink:href="#aU"/><use transform="matrix(0.010850694444444444,0,0,0.010850694444444444,50.48828125,0)" xlink:href="#aN"/><use transform="matrix(0.010850694444444444,0,0,0.010850694444444444,63.444010416666664,0)" xlink:href="#aQ"/></g><g id="C"><use transform="matrix(0.010850694444444444,0,0,0.010850694444444444,0,0)" xlink:href="#aS"/><use transform="matrix(0.010850694444444444,0,0,0.010850694444444444,16.03732638888889,0)" xlink:href="#aL"/><use transform="matrix(0.010850694444444444,0,0,0.010850694444444444,24.034288194444443,0)" xlink:href="#aT"/><use transform="matrix(0.010850694444444444,0,0,0.010850694444444444,37.35894097222222,0)" xlink:href="#aU"/><use transform="matrix(0.010850694444444444,0,0,0.010850694444444444,50.48828125,0)" xlink:href="#aN"/><use transform="matrix(0.010850694444444444,0,0,0.010850694444444444,63.444010416666664,0)" xlink:href="#aR"/></g><path d="M370-1490V0H180v-1490h190" id="aV"/><path d="M180 0v-1490h270l367 940c28 72 75 218 110 339 35-117 81-264 110-339l362-940h271V0h-187c2-448-5-837 7-1287-157 497-311 829-483 1287H842C666-458 514-784 354-1284c12 438 5 843 7 1284H180" id="aW"/><path d="M180 0v-1490h908v168H370v486h669v168H370v500h727V0H180" id="aX"/><path d="M657 26c-323 0-524-166-541-416h195c15 169 171 246 346 246 202 0 356-106 356-265 5-203-294-238-475-293-239-73-380-191-380-389 0-252 224-419 512-419 294 0 499 171 508 396H992c-17-145-151-228-328-228-193 0-321 102-321 242 0 156 175 211 284 241l149 41c160 44 422 134 422 412 0 244-197 432-541 432" id="aY"/><path d="M52 0l541-1490h220L1361 0h-200l-149-416H398L254 0H52zm404-582h497c-103-290-145-390-251-756-108 377-145 460-246 756" id="aZ"/><path d="M180 0v-1490h510c348 0 508 209 508 474 0 266-160 477-507 477H370V0H180zm190-706h312c236 0 327-133 327-310 0-176-91-307-329-307H370v617" id="ba"/><g id="D"><use transform="matrix(0.010850694444444444,0,0,0.010850694444444444,0,0)" xlink:href="#aJ"/><use transform="matrix(0.010850694444444444,0,0,0.010850694444444444,14.344618055555555,0)" xlink:href="#aV"/><use transform="matrix(0.010850694444444444,0,0,0.010850694444444444,20.3125,0)" xlink:href="#aW"/><use transform="matrix(0.010850694444444444,0,0,0.010850694444444444,40.38628472222222,0)" xlink:href="#aX"/><use transform="matrix(0.010850694444444444,0,0,0.010850694444444444,53.74348958333333,0)" xlink:href="#aY"/><use transform="matrix(0.010850694444444444,0,0,0.010850694444444444,68.00130208333333,0)" xlink:href="#aJ"/><use transform="matrix(0.010850694444444444,0,0,0.010850694444444444,80.45789930555556,0)" xlink:href="#aZ"/><use transform="matrix(0.010850694444444444,0,0,0.010850694444444444,95.78993055555556,0)" xlink:href="#aW"/><use transform="matrix(0.010850694444444444,0,0,0.010850694444444444,115.86371527777777,0)" xlink:href="#ba"/></g><g id="E"><use transform="matrix(0.010850694444444444,0,0,0.010850694444444444,0,0)" xlink:href="#aS"/><use transform="matrix(0.010850694444444444,0,0,0.010850694444444444,16.03732638888889,0)" xlink:href="#aL"/><use transform="matrix(0.010850694444444444,0,0,0.010850694444444444,24.034288194444443,0)" xlink:href="#aT"/><use transform="matrix(0.010850694444444444,0,0,0.010850694444444444,37.35894097222222,0)" xlink:href="#aU"/><use transform="matrix(0.010850694444444444,0,0,0.010850694444444444,50.48828125,0)" xlink:href="#aN"/><use transform="matrix(0.010850694444444444,0,0,0.010850694444444444,62.814670138888886,0)" xlink:href="#aP"/></g><g id="F"><use transform="matrix(0.010850694444444444,0,0,0.010850694444444444,0,0)" xlink:href="#aS"/><use transform="matrix(0.010850694444444444,0,0,0.010850694444444444,16.03732638888889,0)" xlink:href="#aL"/><use transform="matrix(0.010850694444444444,0,0,0.010850694444444444,24.034288194444443,0)" xlink:href="#aT"/><use transform="matrix(0.010850694444444444,0,0,0.010850694444444444,37.35894097222222,0)" xlink:href="#aU"/><use transform="matrix(0.010850694444444444,0,0,0.010850694444444444,50.48828125,0)" xlink:href="#aN"/><use transform="matrix(0.010850694444444444,0,0,0.010850694444444444,63.444010416666664,0)" xlink:href="#aQ"/></g><g id="G"><use transform="matrix(0.010850694444444444,0,0,0.010850694444444444,0,0)" xlink:href="#aS"/><use transform="matrix(0.010850694444444444,0,0,0.010850694444444444,16.03732638888889,0)" xlink:href="#aL"/><use transform="matrix(0.010850694444444444,0,0,0.010850694444444444,24.034288194444443,0)" xlink:href="#aT"/><use transform="matrix(0.010850694444444444,0,0,0.010850694444444444,37.35894097222222,0)" xlink:href="#aU"/><use transform="matrix(0.010850694444444444,0,0,0.010850694444444444,50.48828125,0)" xlink:href="#aN"/><use transform="matrix(0.010850694444444444,0,0,0.010850694444444444,63.444010416666664,0)" xlink:href="#aR"/></g><g id="H"><use transform="matrix(0.010850694444444444,0,0,0.010850694444444444,0,0)" xlink:href="#aJ"/><use transform="matrix(0.010850694444444444,0,0,0.010850694444444444,12.71701388888889,0)" xlink:href="#aK"/><use transform="matrix(0.010850694444444444,0,0,0.010850694444444444,25.1953125,0)" xlink:href="#aL"/><use transform="matrix(0.010850694444444444,0,0,0.010850694444444444,33.19227430555556,0)" xlink:href="#aM"/><use transform="matrix(0.010850694444444444,0,0,0.010850694444444444,46.82074652777778,0)" xlink:href="#aN"/><use transform="matrix(0.010850694444444444,0,0,0.010850694444444444,59.77647569444444,0)" xlink:href="#aO"/><use transform="matrix(0.010850694444444444,0,0,0.010850694444444444,67.04644097222221,0)" xlink:href="#aP"/></g><g id="I"><use transform="matrix(0.010850694444444444,0,0,0.010850694444444444,0,0)" xlink:href="#aJ"/><use transform="matrix(0.010850694444444444,0,0,0.010850694444444444,12.71701388888889,0)" xlink:href="#aK"/><use transform="matrix(0.010850694444444444,0,0,0.010850694444444444,25.1953125,0)" xlink:href="#aL"/><use transform="matrix(0.010850694444444444,0,0,0.010850694444444444,33.19227430555556,0)" xlink:href="#aM"/><use transform="matrix(0.010850694444444444,0,0,0.010850694444444444,46.82074652777778,0)" xlink:href="#aN"/><use transform="matrix(0.010850694444444444,0,0,0.010850694444444444,59.77647569444444,0)" xlink:href="#aO"/><use transform="matrix(0.010850694444444444,0,0,0.010850694444444444,66.69921875,0)" xlink:href="#aQ"/></g><g id="J"><use transform="matrix(0.010850694444444444,0,0,0.010850694444444444,0,0)" xlink:href="#aJ"/><use transform="matrix(0.010850694444444444,0,0,0.010850694444444444,12.71701388888889,0)" xlink:href="#aK"/><use transform="matrix(0.010850694444444444,0,0,0.010850694444444444,25.1953125,0)" xlink:href="#aL"/><use transform="matrix(0.010850694444444444,0,0,0.010850694444444444,33.19227430555556,0)" xlink:href="#aM"/><use transform="matrix(0.010850694444444444,0,0,0.010850694444444444,46.82074652777778,0)" xlink:href="#aN"/><use transform="matrix(0.010850694444444444,0,0,0.010850694444444444,59.77647569444444,0)" xlink:href="#aO"/><use transform="matrix(0.010850694444444444,0,0,0.010850694444444444,67.04644097222221,0)" xlink:href="#aR"/></g><g id="K"><use transform="matrix(0.010850694444444444,0,0,0.010850694444444444,0,0)" xlink:href="#aS"/><use transform="matrix(0.010850694444444444,0,0,0.010850694444444444,16.03732638888889,0)" xlink:href="#aL"/><use transform="matrix(0.010850694444444444,0,0,0.010850694444444444,24.034288194444443,0)" xlink:href="#aT"/><use transform="matrix(0.010850694444444444,0,0,0.010850694444444444,37.35894097222222,0)" xlink:href="#aU"/><use transform="matrix(0.010850694444444444,0,0,0.010850694444444444,50.48828125,0)" xlink:href="#aN"/><use transform="matrix(0.010850694444444444,0,0,0.010850694444444444,62.814670138888886,0)" xlink:href="#aP"/></g><g id="L"><use transform="matrix(0.010850694444444444,0,0,0.010850694444444444,0,0)" xlink:href="#aS"/><use transform="matrix(0.010850694444444444,0,0,0.010850694444444444,16.03732638888889,0)" xlink:href="#aL"/><use transform="matrix(0.010850694444444444,0,0,0.010850694444444444,24.034288194444443,0)" xlink:href="#aT"/><use transform="matrix(0.010850694444444444,0,0,0.010850694444444444,37.35894097222222,0)" xlink:href="#aU"/><use transform="matrix(0.010850694444444444,0,0,0.010850694444444444,50.48828125,0)" xlink:href="#aN"/><use transform="matrix(0.010850694444444444,0,0,0.010850694444444444,63.444010416666664,0)" xlink:href="#aQ"/></g><g id="M"><use transform="matrix(0.010850694444444444,0,0,0.010850694444444444,0,0)" xlink:href="#aS"/><use transform="matrix(0.010850694444444444,0,0,0.010850694444444444,16.03732638888889,0)" xlink:href="#aL"/><use transform="matrix(0.010850694444444444,0,0,0.010850694444444444,24.034288194444443,0)" xlink:href="#aT"/><use transform="matrix(0.010850694444444444,0,0,0.010850694444444444,37.35894097222222,0)" xlink:href="#aU"/><use transform="matrix(0.010850694444444444,0,0,0.010850694444444444,50.48828125,0)" xlink:href="#aN"/><use transform="matrix(0.010850694444444444,0,0,0.010850694444444444,63.444010416666664,0)" xlink:href="#aR"/></g><g id="N"><use transform="matrix(0.010850694444444444,0,0,0.010850694444444444,0,0)" xlink:href="#aJ"/><use transform="matrix(0.010850694444444444,0,0,0.010850694444444444,12.71701388888889,0)" xlink:href="#aK"/><use transform="matrix(0.010850694444444444,0,0,0.010850694444444444,25.1953125,0)" xlink:href="#aL"/><use transform="matrix(0.010850694444444444,0,0,0.010850694444444444,33.19227430555556,0)" xlink:href="#aM"/><use transform="matrix(0.010850694444444444,0,0,0.010850694444444444,46.82074652777778,0)" xlink:href="#aN"/><use transform="matrix(0.010850694444444444,0,0,0.010850694444444444,59.77647569444444,0)" xlink:href="#aO"/><use transform="matrix(0.010850694444444444,0,0,0.010850694444444444,67.04644097222221,0)" xlink:href="#aP"/></g><g id="O"><use transform="matrix(0.010850694444444444,0,0,0.010850694444444444,0,0)" xlink:href="#aJ"/><use transform="matrix(0.010850694444444444,0,0,0.010850694444444444,12.71701388888889,0)" xlink:href="#aK"/><use transform="matrix(0.010850694444444444,0,0,0.010850694444444444,25.1953125,0)" xlink:href="#aL"/><use transform="matrix(0.010850694444444444,0,0,0.010850694444444444,33.19227430555556,0)" xlink:href="#aM"/><use transform="matrix(0.010850694444444444,0,0,0.010850694444444444,46.82074652777778,0)" xlink:href="#aN"/><use transform="matrix(0.010850694444444444,0,0,0.010850694444444444,59.77647569444444,0)" xlink:href="#aO"/><use transform="matrix(0.010850694444444444,0,0,0.010850694444444444,66.69921875,0)" xlink:href="#aQ"/></g><g id="P"><use transform="matrix(0.010850694444444444,0,0,0.010850694444444444,0,0)" xlink:href="#aJ"/><use transform="matrix(0.010850694444444444,0,0,0.010850694444444444,12.71701388888889,0)" xlink:href="#aK"/><use transform="matrix(0.010850694444444444,0,0,0.010850694444444444,25.1953125,0)" xlink:href="#aL"/><use transform="matrix(0.010850694444444444,0,0,0.010850694444444444,33.19227430555556,0)" xlink:href="#aM"/><use transform="matrix(0.010850694444444444,0,0,0.010850694444444444,46.82074652777778,0)" xlink:href="#aN"/><use transform="matrix(0.010850694444444444,0,0,0.010850694444444444,59.77647569444444,0)" xlink:href="#aO"/><use transform="matrix(0.010850694444444444,0,0,0.010850694444444444,67.04644097222221,0)" xlink:href="#aR"/></g><g id="Q"><use transform="matrix(0.010850694444444444,0,0,0.010850694444444444,0,0)" xlink:href="#aS"/><use transform="matrix(0.010850694444444444,0,0,0.010850694444444444,16.03732638888889,0)" xlink:href="#aL"/><use transform="matrix(0.010850694444444444,0,0,0.010850694444444444,24.034288194444443,0)" xlink:href="#aT"/><use transform="matrix(0.010850694444444444,0,0,0.010850694444444444,37.35894097222222,0)" xlink:href="#aU"/><use transform="matrix(0.010850694444444444,0,0,0.010850694444444444,50.48828125,0)" xlink:href="#aN"/><use transform="matrix(0.010850694444444444,0,0,0.010850694444444444,63.444010416666664,0)" xlink:href="#aR"/></g><g id="R"><use transform="matrix(0.010850694444444444,0,0,0.010850694444444444,0,0)" xlink:href="#aJ"/><use transform="matrix(0.010850694444444444,0,0,0.010850694444444444,14.344618055555555,0)" xlink:href="#aV"/><use transform="matrix(0.010850694444444444,0,0,0.010850694444444444,20.3125,0)" xlink:href="#aW"/><use transform="matrix(0.010850694444444444,0,0,0.010850694444444444,40.38628472222222,0)" xlink:href="#aX"/><use transform="matrix(0.010850694444444444,0,0,0.010850694444444444,53.74348958333333,0)" xlink:href="#aY"/><use transform="matrix(0.010850694444444444,0,0,0.010850694444444444,68.00130208333333,0)" xlink:href="#aJ"/><use transform="matrix(0.010850694444444444,0,0,0.010850694444444444,80.45789930555556,0)" xlink:href="#aZ"/><use transform="matrix(0.010850694444444444,0,0,0.010850694444444444,95.78993055555556,0)" xlink:href="#aW"/><use transform="matrix(0.010850694444444444,0,0,0.010850694444444444,115.86371527777777,0)" xlink:href="#ba"/></g><g id="S"><use transform="matrix(0.010850694444444444,0,0,0.010850694444444444,0,0)" xlink:href="#ax"/><use transform="matrix(0.010850694444444444,0,0,0.010850694444444444,20.279947916666664,0)" xlink:href="#ag"/><use transform="matrix(0.010850694444444444,0,0,0.010850694444444444,33.517795138888886,0)" xlink:href="#aC"/><use transform="matrix(0.010850694444444444,0,0,0.010850694444444444,45.963541666666664,0)" xlink:href="#ah"/><use transform="matrix(0.010850694444444444,0,0,0.010850694444444444,53.385416666666664,0)" xlink:href="#ai"/><use transform="matrix(0.010850694444444444,0,0,0.010850694444444444,66.9921875,0)" xlink:href="#aj"/></g><g id="T"><use transform="matrix(0.010850694444444444,0,0,0.010850694444444444,0,0)" xlink:href="#ak"/><use transform="matrix(0.010850694444444444,0,0,0.010850694444444444,13.075086805555555,0)" xlink:href="#al"/><use transform="matrix(0.010850694444444444,0,0,0.010850694444444444,19.09722222222222,0)" xlink:href="#ad"/><use transform="matrix(0.010850694444444444,0,0,0.010850694444444444,25.11935763888889,0)" xlink:href="#ag"/><use transform="matrix(0.010850694444444444,0,0,0.010850694444444444,38.35720486111111,0)" xlink:href="#am"/><use transform="matrix(0.010850694444444444,0,0,0.010850694444444444,52.19184027777778,0)" xlink:href="#an"/><use transform="matrix(0.010850694444444444,0,0,0.010850694444444444,60.32986111111111,0)" xlink:href="#ao"/><use transform="matrix(0.010850694444444444,0,0,0.010850694444444444,71.6579861111111,0)" xlink:href="#ax"/><use transform="matrix(0.010850694444444444,0,0,0.010850694444444444,91.93793402777777,0)" xlink:href="#ag"/><use transform="matrix(0.010850694444444444,0,0,0.010850694444444444,105.17578125,0)" xlink:href="#aC"/><use transform="matrix(0.010850694444444444,0,0,0.010850694444444444,117.62152777777777,0)" xlink:href="#ah"/><use transform="matrix(0.010850694444444444,0,0,0.010850694444444444,125.04340277777777,0)" xlink:href="#ai"/><use transform="matrix(0.010850694444444444,0,0,0.010850694444444444,138.65017361111111,0)" xlink:href="#aj"/></g><g id="U"><use transform="matrix(0.010850694444444444,0,0,0.010850694444444444,0,0)" xlink:href="#ap"/><use transform="matrix(0.010850694444444444,0,0,0.010850694444444444,14.55078125,0)" xlink:href="#ag"/><use transform="matrix(0.010850694444444444,0,0,0.010850694444444444,27.78862847222222,0)" xlink:href="#ac"/><use transform="matrix(0.010850694444444444,0,0,0.010850694444444444,37.18532986111111,0)" xlink:href="#aE"/><use transform="matrix(0.010850694444444444,0,0,0.010850694444444444,50.10850694444444,0)" xlink:href="#ag"/><use transform="matrix(0.010850694444444444,0,0,0.010850694444444444,63.346354166666664,0)" xlink:href="#ac"/></g><g id="V"><use transform="matrix(0.010850694444444444,0,0,0.010850694444444444,0,0)" xlink:href="#ay"/><use transform="matrix(0.010850694444444444,0,0,0.010850694444444444,17.122395833333332,0)" xlink:href="#az"/><use transform="matrix(0.010850694444444444,0,0,0.010850694444444444,31.521267361111104,0)" xlink:href="#aw"/></g><g id="W"><use transform="matrix(0.010850694444444444,0,0,0.010850694444444444,0,0)" xlink:href="#aA"/><use transform="matrix(0.010850694444444444,0,0,0.010850694444444444,15.831163194444445,0)" xlink:href="#aB"/></g><g id="X"><use transform="matrix(0.010850694444444444,0,0,0.010850694444444444,0,0)" xlink:href="#aw"/><use transform="matrix(0.010850694444444444,0,0,0.010850694444444444,16.438802083333332,0)" xlink:href="#al"/><use transform="matrix(0.010850694444444444,0,0,0.010850694444444444,22.4609375,0)" xlink:href="#ad"/><use transform="matrix(0.010850694444444444,0,0,0.010850694444444444,28.483072916666664,0)" xlink:href="#ag"/><use transform="matrix(0.010850694444444444,0,0,0.010850694444444444,41.720920138888886,0)" xlink:href="#am"/><use transform="matrix(0.010850694444444444,0,0,0.010850694444444444,55.55555555555556,0)" xlink:href="#an"/></g><g id="Y"><use transform="matrix(0.010850694444444444,0,0,0.010850694444444444,0,0)" xlink:href="#ay"/><use transform="matrix(0.010850694444444444,0,0,0.010850694444444444,17.122395833333332,0)" xlink:href="#az"/><use transform="matrix(0.010850694444444444,0,0,0.010850694444444444,31.521267361111104,0)" xlink:href="#aw"/></g><g id="Z"><use transform="matrix(0.010850694444444444,0,0,0.010850694444444444,0,0)" xlink:href="#aA"/><use transform="matrix(0.010850694444444444,0,0,0.010850694444444444,15.831163194444445,0)" xlink:href="#aB"/></g><g id="aa"><use transform="matrix(0.010850694444444444,0,0,0.010850694444444444,0,0)" xlink:href="#ax"/><use transform="matrix(0.010850694444444444,0,0,0.010850694444444444,20.279947916666664,0)" xlink:href="#ag"/><use transform="matrix(0.010850694444444444,0,0,0.010850694444444444,33.517795138888886,0)" xlink:href="#aC"/><use transform="matrix(0.010850694444444444,0,0,0.010850694444444444,45.963541666666664,0)" xlink:href="#ah"/><use transform="matrix(0.010850694444444444,0,0,0.010850694444444444,53.385416666666664,0)" xlink:href="#an"/><use transform="matrix(0.010850694444444444,0,0,0.010850694444444444,61.5234375,0)" xlink:href="#aI"/><use transform="matrix(0.010850694444444444,0,0,0.010850694444444444,74.72873263888889,0)" xlink:href="#an"/></g></defs></g></svg>